<?xml version="1.0" encoding="UTF-8"?>
<svg width="64px" height="58px" viewBox="0 0 64 58" version="1.1" xmlns="http://www.w3.org/2000/svg" xmlns:xlink="http://www.w3.org/1999/xlink">
    <title>编组</title>
    <g id="高保真" stroke="none" stroke-width="1" fill="none" fill-rule="evenodd">
        <g id="钱包方案2" transform="translate(-968.000000, -282.000000)" fill-rule="nonzero">
            <g id="编组" transform="translate(968.000000, 282.000000)">
                <polygon id="路径" fill="#CDBDB2" points="18.2709779 52.4535432 26.6335455 54.6742786 26.6335455 51.77024 27.3162041 51.0869368 32.0948142 51.0869368 32.0948142 54.5034528 32.0948142 56.8950143 26.9748747 56.8950143 20.6602829 54.1618012"></polygon>
                <polygon id="路径" fill="#CDBDB2" transform="translate(38.750735, 53.990976) scale(-1, 1) translate(-38.750735, -53.990976) " points="31.9241494 52.4535432 40.1160524 54.6742786 40.1160524 51.77024 40.798711 51.0869368 45.577321 51.0869368 45.577321 54.5034528 45.577321 56.8950143 40.4573816 56.8950143 34.1427898 54.1618012"></polygon>
                <polygon id="路径" fill="#393939" points="27.3162041 46.1329886 26.6335455 51.77024 27.4868687 51.0869368 36.3614304 51.0869368 37.3854183 51.77024 36.7027596 46.1329886 35.3374426 45.2788596 28.5108565 45.4496854"></polygon>
                <polygon id="路径" fill="#F89C35" points="22.7082587 8.03883452 26.8042102 17.6050795 28.6815212 45.4496854 35.3374426 45.4496854 37.3854183 17.6050795 41.1400404 8.03883452"></polygon>
                <polygon id="路径" fill="#F89D35" points="4.78847072 29.0504082 0.00986062633 42.8872984 11.9563859 42.203995 19.6362949 42.203995 19.6362949 36.225092 19.2949657 23.9256343 17.5883192 25.2922406"></polygon>
                <polygon id="路径" fill="#D87C30" points="13.833697 30.5878406 27.8281979 30.9294923 26.2922163 38.1041758 19.6362949 36.3959178"></polygon>
                <polygon id="路径" fill="#EA8D3A" points="13.833697 30.7586665 19.6362949 36.225092 19.6362949 41.6915176"></polygon>
                <polygon id="路径" fill="#F89D35" points="19.6362949 36.3959178 26.4628808 38.1041758 28.6815212 45.4496854 27.1455395 46.3038144 19.6362949 41.8623434"></polygon>
                <polygon id="路径" fill="#EB8F35" points="19.6362949 41.8623434 18.2709779 52.4535432 27.3162041 46.1329886"></polygon>
                <polygon id="路径" fill="#EA8E3A" points="27.8281979 30.9294923 28.6815212 45.4496854 26.1215514 38.0187629"></polygon>
                <polygon id="路径" fill="#D87C30" points="11.7857212 42.0331692 19.6362949 41.8623434 18.2709779 52.4535432"></polygon>
                <polygon id="路径" fill="#EB8F35" points="3.76448285 57.0658401 18.2709779 52.4535432 11.7857212 42.0331692 0.00986062633 42.8872984"></polygon>
                <polygon id="路径" fill="#E8821E" points="26.8042102 17.6050795 19.4656304 23.7548084 13.833697 30.5878406 27.8281979 31.1003181"></polygon>
                <polygon id="路径" fill="#DFCEC3" points="18.2709779 52.4535432 27.3162041 46.1329886 26.6335455 51.5994142 26.6335455 54.6742786 20.4896182 53.4784981"></polygon>
                <polygon id="路径" fill="#DFCEC3" transform="translate(41.140040, 50.403634) scale(-1, 1) translate(-41.140040, -50.403634) " points="36.7027596 52.4535432 45.5773212 46.1329886 44.8946626 51.5994142 44.8946626 54.6742786 38.7507353 53.4784981"></polygon>
                <polygon id="路径" fill="#393939" transform="translate(22.622926, 35.968853) scale(-1, 1) translate(-22.622926, -35.968853) " points="21.1722767 34.0043567 19.2949657 37.9333499 25.9508869 36.225092"></polygon>
                <polygon id="路径" fill="#E88F35" points="3.59381821 0.0100217825 26.8042102 17.6050795 22.8789233 8.03883452"></polygon>
                <path d="M3.59381821,0.0100217825 L0.521854566,9.40544095 L2.22850103,19.6549892 L1.0338485,20.3382924 L2.74049497,21.8757245 L1.3751778,23.0715052 L3.25248891,24.7797631 L2.05783638,25.804718 L4.78847072,29.221234 L17.5883192,25.2922406 C23.8460231,20.2813504 26.9179866,17.7189633 26.8042102,17.6050795 C26.6904336,17.4911957 18.9536363,11.6261764 3.59381821,0.0100217825 L3.59381821,0.0100217825 Z" id="路径" fill="#8E5A30"></path>
                <g transform="translate(49.348299, 29.000000) scale(-1, 1) translate(-49.348299, -29.000000) translate(34.848299, 0.000000)" id="路径">
                    <polygon fill="#F89D35" points="4.78847072 29.0504082 0.00986062633 42.8872984 11.9563859 42.203995 19.6362949 42.203995 19.6362949 36.225092 19.2949657 23.9256343 17.5883192 25.2922406"></polygon>
                    <polygon fill="#D87C30" points="13.833697 30.5878406 27.8281979 30.9294923 26.2922163 38.1041758 19.6362949 36.3959178"></polygon>
                    <polygon fill="#EA8D3A" points="13.833697 30.7586665 19.6362949 36.225092 19.6362949 41.6915176"></polygon>
                    <polygon fill="#F89D35" points="19.6362949 36.3959178 26.4628808 38.1041758 28.6815212 45.4496854 27.1455395 46.3038144 19.6362949 41.8623434"></polygon>
                    <polygon fill="#EB8F35" points="19.6362949 41.8623434 18.2709779 52.4535432 27.1455395 46.3038144"></polygon>
                    <polygon fill="#EA8E3A" points="27.8281979 30.9294923 28.6815212 45.4496854 26.1215514 38.0187629"></polygon>
                    <polygon fill="#D87C30" points="11.7857212 42.0331692 19.6362949 41.8623434 18.2709779 52.4535432"></polygon>
                    <polygon fill="#EB8F35" points="3.76448285 57.0658401 18.2709779 52.4535432 11.7857212 42.0331692 0.00986062633 42.8872984"></polygon>
                    <polygon fill="#E8821E" points="26.8042102 17.6050795 19.4656304 23.7548084 13.833697 30.5878406 27.8281979 31.1003181"></polygon>
                    <polygon fill="#393939" transform="translate(22.622926, 35.968853) scale(-1, 1) translate(-22.622926, -35.968853) " points="21.1722767 34.0043567 19.2949657 37.9333499 25.9508869 36.225092"></polygon>
                    <polygon fill="#E88F35" points="3.59381821 0.0100217825 26.8042102 17.6050795 22.8789233 8.03883452"></polygon>
                    <path d="M3.59381821,0.0100217825 L0.521854566,9.40544095 L2.22850103,19.6549892 L1.0338485,20.3382924 L2.74049497,21.8757245 L1.3751778,23.0715052 L3.25248891,24.7797631 L2.05783638,25.804718 L4.78847072,29.221234 L17.5883192,25.2922406 C23.8460231,20.2813504 26.9179866,17.7189633 26.8042102,17.6050795 C26.6904336,17.4911957 18.9536363,11.6261764 3.59381821,0.0100217825 L3.59381821,0.0100217825 Z" fill="#8E5A30"></path>
                </g>
            </g>
        </g>
    </g>
</svg>